<svg xmlns="http://www.w3.org/2000/svg" xmlns:xlink="http://www.w3.org/1999/xlink" width="1440.477" height="880" viewBox="0 0 1440.477 880">
  <defs>
    <linearGradient id="linear-gradient" x1="0.399" y1="0.5" x2="1" y2="0.464" gradientUnits="objectBoundingBox">
      <stop offset="0" stop-color="#3847b5"/>
      <stop offset="1" stop-color="#253194"/>
    </linearGradient>
    <clipPath id="clip-path">
      <path id="Mask" d="M1440.477,0V880H0V0Z" transform="translate(0.515)" fill="url(#linear-gradient)"/>
    </clipPath>
    <filter id="BG_Shape2" x="-335.893" y="-40.738" width="1100.131" height="1048.81" filterUnits="userSpaceOnUse">
      <feOffset dy="4" input="SourceAlpha"/>
      <feGaussianBlur stdDeviation="65" result="blur"/>
      <feFlood flood-color="#263396"/>
      <feComposite operator="in" in2="blur"/>
      <feComposite in="SourceGraphic"/>
    </filter>
    <filter id="BG_Shape1" x="-159.515" y="-46" width="1300.285" height="793.927" filterUnits="userSpaceOnUse">
      <feOffset dy="11" input="SourceAlpha"/>
      <feGaussianBlur stdDeviation="53" result="blur-2"/>
      <feFlood flood-color="#2a389d"/>
      <feComposite operator="in" in2="blur-2"/>
      <feComposite in="SourceGraphic"/>
    </filter>
  </defs>
  <g id="Rectangle" transform="translate(-0.515)" clip-path="url(#clip-path)">
    <g transform="matrix(1, 0, 0, 1, 0.52, 0)" filter="url(#BG_Shape2)">
      <path id="BG_Shape2-2" data-name="BG/Shape2" d="M0,76.329a76,76,0,0,0-75.951-76L-590.8,0l147.946,515.95,366.882-.126A76,76,0,0,0,0,439.824Z" transform="translate(569.24 313.11) rotate(16)" fill="#4250bf"/>
    </g>
    <g transform="matrix(1, 0, 0, 1, 0.52, 0)" filter="url(#BG_Shape1)">
      <path id="BG_Shape1-2" data-name="BG/Shape1" d="M-982.285,0V268.031l772.091,205.325a76,76,0,0,0,92.728-52.993L-52.41,187.554,0,0Z" transform="translate(981.77 102)" fill="#3947b6"/>
    </g>
  </g>
</svg>
